<svg xmlns="http://www.w3.org/2000/svg" viewBox="0 0 800 500" width="800" height="500" role="img" aria-label="CUDA MatAdd">
  <defs>
    <linearGradient id="bg-cuda-matrix-addition" x1="0" y1="0" x2="1" y2="1">
      <stop offset="0%" stop-color="#10b981"/>
      <stop offset="100%" stop-color="#84cc16"/>
    </linearGradient>
    <filter id="soft" x="-20%" y="-20%" width="140%" height="140%">
      <feGaussianBlur stdDeviation="6"/>
    </filter>
  </defs>
  <rect width="800" height="500" fill="url(#bg-cuda-matrix-addition)"/>
  <rect width="800" height="500" fill="rgba(15,23,42,0.18)"/>
  <g transform="translate(400 210)" fill="none" stroke="#ffffff" stroke-width="3" stroke-linecap="round" stroke-linejoin="round" opacity="0.95">
    <rect x="-99.0" y="-77.0" width="198" height="154" fill="rgba(255,255,255,0.05)" rx="6"/>
    <line x1="-99.0" y1="-77.0" x2="99.0" y2="-77.0"/>
    <line x1="-99.0" y1="-55.0" x2="99.0" y2="-55.0"/>
    <line x1="-99.0" y1="-33.0" x2="99.0" y2="-33.0"/>
    <line x1="-99.0" y1="-11.0" x2="99.0" y2="-11.0"/>
    <line x1="-99.0" y1="11.0" x2="99.0" y2="11.0"/>
    <line x1="-99.0" y1="33.0" x2="99.0" y2="33.0"/>
    <line x1="-99.0" y1="55.0" x2="99.0" y2="55.0"/>
    <line x1="-99.0" y1="77.0" x2="99.0" y2="77.0"/>
    <line x1="-99.0" y1="-77.0" x2="-99.0" y2="77.0"/>
    <line x1="-77.0" y1="-77.0" x2="-77.0" y2="77.0"/>
    <line x1="-55.0" y1="-77.0" x2="-55.0" y2="77.0"/>
    <line x1="-33.0" y1="-77.0" x2="-33.0" y2="77.0"/>
    <line x1="-11.0" y1="-77.0" x2="-11.0" y2="77.0"/>
    <line x1="11.0" y1="-77.0" x2="11.0" y2="77.0"/>
    <line x1="33.0" y1="-77.0" x2="33.0" y2="77.0"/>
    <line x1="55.0" y1="-77.0" x2="55.0" y2="77.0"/>
    <line x1="77.0" y1="-77.0" x2="77.0" y2="77.0"/>
    <line x1="99.0" y1="-77.0" x2="99.0" y2="77.0"/>
    <text x="0" y="6" text-anchor="middle" fill="#ffffff" stroke="none" font-family="Inter" font-size="26" font-weight="700">+</text>
  </g>
  <text x="400" y="420" text-anchor="middle" font-family="Inter, system-ui, sans-serif" font-size="34" font-weight="700" fill="#ffffff" letter-spacing="0.5">CUDA MatAdd</text>
</svg>
