<svg xmlns="http://www.w3.org/2000/svg" viewBox="0 0 800 500" width="800" height="500" role="img" aria-label="Diffusion Model">
  <defs>
    <linearGradient id="bg-generative-diffusion-model" x1="0" y1="0" x2="1" y2="1">
      <stop offset="0%" stop-color="#ec4899"/>
      <stop offset="100%" stop-color="#f43f5e"/>
    </linearGradient>
    <filter id="soft" x="-20%" y="-20%" width="140%" height="140%">
      <feGaussianBlur stdDeviation="6"/>
    </filter>
  </defs>
  <rect width="800" height="500" fill="url(#bg-generative-diffusion-model)"/>
  <rect width="800" height="500" fill="rgba(15,23,42,0.18)"/>
  <g transform="translate(400 210)" fill="none" stroke="#ffffff" stroke-width="3" stroke-linecap="round" stroke-linejoin="round" opacity="0.95">
    <rect x="-185" y="-30" width="50" height="60" rx="6" fill="rgba(255,255,255,0.2)" stroke="none"/>
    <path d="M -132 0 H -118" marker-end="url(#ah3)"/>
    <rect x="-115" y="-30" width="50" height="60" rx="6" fill="rgba(255,255,255,0.38)" stroke="none"/>
    <path d="M -62 0 H -48" marker-end="url(#ah3)"/>
    <rect x="-45" y="-30" width="50" height="60" rx="6" fill="rgba(255,255,255,0.56)" stroke="none"/>
    <path d="M 8 0 H 22" marker-end="url(#ah3)"/>
    <rect x="25" y="-30" width="50" height="60" rx="6" fill="rgba(255,255,255,0.74)" stroke="none"/>
    <path d="M 78 0 H 92" marker-end="url(#ah3)"/>
    <rect x="95" y="-30" width="50" height="60" rx="6" fill="rgba(255,255,255,0.9199999999999999)" stroke="none"/>
    <defs><marker id="ah3" viewBox="0 0 10 10" refX="8" refY="5" markerWidth="7" markerHeight="7" orient="auto-start-reverse"><path d="M0,0 L10,5 L0,10 z" fill="#ffffff"/></marker></defs>
  </g>
  <text x="400" y="420" text-anchor="middle" font-family="Inter, system-ui, sans-serif" font-size="34" font-weight="700" fill="#ffffff" letter-spacing="0.5">Diffusion Model</text>
</svg>
