<svg xmlns="http://www.w3.org/2000/svg" viewBox="0 0 800 500" width="800" height="500" role="img" aria-label="Moby Dick LM">
  <defs>
    <linearGradient id="bg-moby-dick-lm-suite" x1="0" y1="0" x2="1" y2="1">
      <stop offset="0%" stop-color="#f59e0b"/>
      <stop offset="100%" stop-color="#f97316"/>
    </linearGradient>
    <filter id="soft" x="-20%" y="-20%" width="140%" height="140%">
      <feGaussianBlur stdDeviation="6"/>
    </filter>
  </defs>
  <rect width="800" height="500" fill="url(#bg-moby-dick-lm-suite)"/>
  <rect width="800" height="500" fill="rgba(15,23,42,0.18)"/>
  <g transform="translate(400 210)" fill="none" stroke="#ffffff" stroke-width="3" stroke-linecap="round" stroke-linejoin="round" opacity="0.95">
    <rect x="-110" y="-70" width="220" height="140" rx="8" fill="rgba(255,255,255,0.18)"/>
    <line x1="0" y1="-70" x2="0" y2="70"/>
    <path d="M -90 -50 Q -50 -65 -10 -50" />
    <path d="M -90 -20 Q -50 -35 -10 -20" />
    <path d="M -90 10 Q -50 -5 -10 10" />
    <path d="M 10 -50 Q 50 -65 90 -50" />
    <path d="M 10 -20 Q 50 -35 90 -20" />
    <path d="M 10 10 Q 50 -5 90 10" />
  </g>
  <text x="400" y="420" text-anchor="middle" font-family="Inter, system-ui, sans-serif" font-size="34" font-weight="700" fill="#ffffff" letter-spacing="0.5">Moby Dick LM</text>
</svg>
