<svg xmlns="http://www.w3.org/2000/svg" viewBox="0 0 800 500" width="800" height="500" role="img" aria-label="Multi-Agent Image Gen">
  <defs>
    <linearGradient id="bg-multi-agents-image-generation" x1="0" y1="0" x2="1" y2="1">
      <stop offset="0%" stop-color="#d946ef"/>
      <stop offset="100%" stop-color="#8b5cf6"/>
    </linearGradient>
    <filter id="soft" x="-20%" y="-20%" width="140%" height="140%">
      <feGaussianBlur stdDeviation="6"/>
    </filter>
  </defs>
  <rect width="800" height="500" fill="url(#bg-multi-agents-image-generation)"/>
  <rect width="800" height="500" fill="rgba(15,23,42,0.18)"/>
  <g transform="translate(400 210)" fill="none" stroke="#ffffff" stroke-width="3" stroke-linecap="round" stroke-linejoin="round" opacity="0.95">
    <rect x="-116" y="-76" width="72" height="52" rx="10" fill="rgba(255,255,255,0.2)"/>
    <circle cx="-80" cy="-54" r="9" fill="#ffffff" stroke="none"/>
    <path d="M -96 -32 Q -80 -44 -64 -32" />
    <rect x="44" y="-76" width="72" height="52" rx="10" fill="rgba(255,255,255,0.2)"/>
    <circle cx="80" cy="-54" r="9" fill="#ffffff" stroke="none"/>
    <path d="M 64 -32 Q 80 -44 96 -32" />
    <rect x="-116" y="24" width="72" height="52" rx="10" fill="rgba(255,255,255,0.2)"/>
    <circle cx="-80" cy="46" r="9" fill="#ffffff" stroke="none"/>
    <path d="M -96 68 Q -80 56 -64 68" />
    <rect x="44" y="24" width="72" height="52" rx="10" fill="rgba(255,255,255,0.2)"/>
    <circle cx="80" cy="46" r="9" fill="#ffffff" stroke="none"/>
    <path d="M 64 68 Q 80 56 96 68" />
    <circle cx="0" cy="0" r="20" fill="rgba(255,255,255,0.3)"/>
    <line x1="0" y1="0" x2="-80" y2="-50" opacity="0.6"/>
    <line x1="0" y1="0" x2="80" y2="-50" opacity="0.6"/>
    <line x1="0" y1="0" x2="-80" y2="50" opacity="0.6"/>
    <line x1="0" y1="0" x2="80" y2="50" opacity="0.6"/>
  </g>
  <text x="400" y="420" text-anchor="middle" font-family="Inter, system-ui, sans-serif" font-size="34" font-weight="700" fill="#ffffff" letter-spacing="0.5">Multi-Agent Image Gen</text>
</svg>
