<svg xmlns="http://www.w3.org/2000/svg" viewBox="0 0 800 500" width="800" height="500" role="img" aria-label="TwinMind Live">
  <defs>
    <linearGradient id="bg-twinmind-assignment" x1="0" y1="0" x2="1" y2="1">
      <stop offset="0%" stop-color="#3b82f6"/>
      <stop offset="100%" stop-color="#14b8a6"/>
    </linearGradient>
    <filter id="soft" x="-20%" y="-20%" width="140%" height="140%">
      <feGaussianBlur stdDeviation="6"/>
    </filter>
  </defs>
  <rect width="800" height="500" fill="url(#bg-twinmind-assignment)"/>
  <rect width="800" height="500" fill="rgba(15,23,42,0.18)"/>
  <g transform="translate(400 210)" fill="none" stroke="#ffffff" stroke-width="3" stroke-linecap="round" stroke-linejoin="round" opacity="0.95">
    <rect x="-131.0" y="-10.0" width="10" height="20" fill="rgba(255,255,255,0.95)" stroke="none" rx="4"/>
    <rect x="-113.0" y="-19.0" width="10" height="38" fill="rgba(255,255,255,0.95)" stroke="none" rx="4"/>
    <rect x="-95.0" y="-27.5" width="10" height="55" fill="rgba(255,255,255,0.95)" stroke="none" rx="4"/>
    <rect x="-77.0" y="-15.0" width="10" height="30" fill="rgba(255,255,255,0.95)" stroke="none" rx="4"/>
    <rect x="-59.0" y="-35.0" width="10" height="70" fill="rgba(255,255,255,0.95)" stroke="none" rx="4"/>
    <rect x="-41.0" y="-45.0" width="10" height="90" fill="rgba(255,255,255,0.95)" stroke="none" rx="4"/>
    <rect x="-23.0" y="-30.0" width="10" height="60" fill="rgba(255,255,255,0.95)" stroke="none" rx="4"/>
    <rect x="-5.0" y="-20.0" width="10" height="40" fill="rgba(255,255,255,0.95)" stroke="none" rx="4"/>
    <rect x="13.0" y="-39.0" width="10" height="78" fill="rgba(255,255,255,0.95)" stroke="none" rx="4"/>
    <rect x="31.0" y="-25.0" width="10" height="50" fill="rgba(255,255,255,0.95)" stroke="none" rx="4"/>
    <rect x="49.0" y="-14.0" width="10" height="28" fill="rgba(255,255,255,0.95)" stroke="none" rx="4"/>
    <rect x="67.0" y="-30.0" width="10" height="60" fill="rgba(255,255,255,0.95)" stroke="none" rx="4"/>
    <rect x="85.0" y="-22.0" width="10" height="44" fill="rgba(255,255,255,0.95)" stroke="none" rx="4"/>
    <rect x="103.0" y="-11.0" width="10" height="22" fill="rgba(255,255,255,0.95)" stroke="none" rx="4"/>
    <rect x="121.0" y="-18.0" width="10" height="36" fill="rgba(255,255,255,0.95)" stroke="none" rx="4"/>
  </g>
  <text x="400" y="420" text-anchor="middle" font-family="Inter, system-ui, sans-serif" font-size="34" font-weight="700" fill="#ffffff" letter-spacing="0.5">TwinMind Live</text>
</svg>
